{
  "accessors": [
    {
      "bufferView": 2,
      "componentType": 5126,
      "count": 30,
      "max": [
        0.75287002325057983,
        -0.96476000547409058,
        -2.430757999420166
      ],
      "min": [
        -0.75178998708724976,
        -3.6063699722290039,
        -6.3391385078430176
      ],
      "type": "VEC3"
    },
    {
      "bufferView": 2,
      "byteOffset": 360,
      "componentType": 5126,
      "count": 30,
      "max": [
        0.75172394514083862,
        0.7071068286895752,
        0.78547877073287964
      ],
      "min": [
        -0.75180971622467041,
        -0.7071068286895752,
        -0.2939109206199646
      ],
      "type": "VEC3"
    },
    {
      "bufferView": 3,
      "componentType": 5126,
      "count": 30,
      "max": [
        0.70712584257125854,
        0.91178333759307861,
        0.76185917854309082,
        1
      ],
      "min": [
        -0.81649661064147949,
        -0.81649667024612427,
        -0.76373469829559326,
        1
      ],
      "type": "VEC4"
    },
    {
      "bufferView": 1,
      "componentType": 5126,
      "count": 30,
      "max": [
        0.99496001005172729,
        0.56786000728607178
      ],
      "min": [
        0.21373000741004944,
        0.0073899999260902405
      ],
      "type": "VEC2"
    },
    {
      "bufferView": 1,
      "byteOffset": 240,
      "componentType": 5126,
      "count": 30,
      "max": [
        0.99496001005172729,
        0.56786000728607178
      ],
      "min": [
        0.21373000741004944,
        0.0073899999260902405
      ],
      "type": "VEC2"
    },
    {
      "bufferView": 0,
      "componentType": 5125,
      "count": 66,
      "max": [
        29
      ],
      "min": [
        0
      ],
      "type": "SCALAR"
    },
    {
      "bufferView": 2,
      "byteOffset": 720,
      "componentType": 5126,
      "count": 128,
      "max": [
        1.3314000368118286,
        2.3789899349212646,
        2.9931299686431885
      ],
      "min": [
        -1.3314000368118286,
        -2.8235099315643311,
        -3.6782701015472412
      ],
      "type": "VEC3"
    },
    {
      "bufferView": 2,
      "byteOffset": 2256,
      "componentType": 5126,
      "count": 128,
      "max": [
        1,
        0.99993085861206055,
        0.99982279539108276
      ],
      "min": [
        -1,
        -0.98297685384750366,
        -0.99997162818908691
      ],
      "type": "VEC3"
    },
    {
      "bufferView": 3,
      "byteOffset": 480,
      "componentType": 5126,
      "count": 128,
      "max": [
        1,
        0.99997162818908691,
        1,
        1
      ],
      "min": [
        -1,
        -0.98231780529022217,
        -1,
        1
      ],
      "type": "VEC4"
    },
    {
      "bufferView": 1,
      "byteOffset": 480,
      "componentType": 5126,
      "count": 128,
      "max": [
        0.99706000089645386,
        0.99605000019073486
      ],
      "min": [
        0.0031999999191612005,
        0.0024500000290572643
      ],
      "type": "VEC2"
    },
    {
      "bufferView": 1,
      "byteOffset": 1504,
      "componentType": 5126,
      "count": 128,
      "max": [
        0.99706000089645386,
        0.99605000019073486
      ],
      "min": [
        0.0031999999191612005,
        0.0024500000290572643
      ],
      "type": "VEC2"
    },
    {
      "bufferView": 0,
      "byteOffset": 264,
      "componentType": 5125,
      "count": 330,
      "max": [
        127
      ],
      "min": [
        0
      ],
      "type": "SCALAR"
    },
    {
      "bufferView": 2,
      "byteOffset": 3792,
      "componentType": 5126,
      "count": 110,
      "max": [
        1.0880099534988403,
        2.1057400703430176,
        1.4013400077819824
      ],
      "min": [
        -1.0880099534988403,
        -1.2812099456787109,
        -0.83205997943878174
      ],
      "type": "VEC3"
    },
    {
      "bufferView": 2,
      "byteOffset": 5112,
      "componentType": 5126,
      "count": 110,
      "max": [
        1,
        1,
        1
      ],
      "min": [
        -1,
        -1,
        -1
      ],
      "type": "VEC3"
    },
    {
      "bufferView": 3,
      "byteOffset": 2528,
      "componentType": 5126,
      "count": 110,
      "max": [
        1,
        0.99484825134277344,
        1,
        1
      ],
      "min": [
        -1,
        -0.99866992235183716,
        -1,
        1
      ],
      "type": "VEC4"
    },
    {
      "bufferView": 1,
      "byteOffset": 2528,
      "componentType": 5126,
      "count": 110,
      "max": [
        0.99594002962112427,
        0.9985700249671936
      ],
      "min": [
        0.0052700000815093517,
        0.0041100000962615013
      ],
      "type": "VEC2"
    },
    {
      "bufferView": 1,
      "byteOffset": 3408,
      "componentType": 5126,
      "count": 110,
      "max": [
        0.99594002962112427,
        0.9985700249671936
      ],
      "min": [
        0.0052700000815093517,
        0.0041100000962615013
      ],
      "type": "VEC2"
    },
    {
      "bufferView": 0,
      "byteOffset": 1584,
      "componentType": 5125,
      "count": 216,
      "max": [
        109
      ],
      "min": [
        0
      ],
      "type": "SCALAR"
    }
  ],
  "asset": {
    "extras": {
      "author": "Duane's Mind (https://sketchfab.com/duanesmind)",
      "license": "CC-BY-4.0 (http://creativecommons.org/licenses/by/4.0/)",
      "source": "https://sketchfab.com/3d-models/cctv-and-keypad-access-panel-dfbf3ebd9b774babbec99989f34df691",
      "title": "CCTV and keypad access Panel"
    },
    "generator": "Sketchfab-4.88.0",
    "version": "2.0"
  },
  "bufferViews": [
    {
      "buffer": 0,
      "byteLength": 2448,
      "byteOffset": 0,
      "name": "floatBufferViews",
      "target": 34963
    },
    {
      "buffer": 0,
      "byteLength": 4288,
      "byteOffset": 2448,
      "byteStride": 8,
      "name": "floatBufferViews",
      "target": 34962
    },
    {
      "buffer": 0,
      "byteLength": 6432,
      "byteOffset": 6736,
      "byteStride": 12,
      "name": "floatBufferViews",
      "target": 34962
    },
    {
      "buffer": 0,
      "byteLength": 4288,
      "byteOffset": 13168,
      "byteStride": 16,
      "name": "floatBufferViews",
      "target": 34962
    }
  ],
  "buffers": [
    {
      "byteLength": 17456,
      "uri": "scene.bin"
    }
  ],
  "images": [
    {
      "uri": "textures/Access_PanelAccess_Panel_material_emissive.png"
    },
    {
      "uri": "textures/Access_PanelAccess_Panel_material_normal.png"
    },
    {
      "uri": "textures/Access_PanelAccess_Panel_material_baseColor.png"
    },
    {
      "uri": "textures/CCTV1CCTV_Material_normal.png"
    },
    {
      "uri": "textures/CCTV1CCTV_Material_baseColor.png"
    }
  ],
  "materials": [
    {
      "doubleSided": true,
      "emissiveFactor": [
        0,
        0,
        0
      ],
      "name": "CCTV1CCTV_Material",
      "normalTexture": {
        "index": 3,
        "scale": 1,
        "texCoord": 0
      },
      "pbrMetallicRoughness": {
        "baseColorFactor": [
          1,
          1,
          1,
          1
        ],
        "baseColorTexture": {
          "index": 4,
          "texCoord": 0
        },
        "metallicFactor": 0.062310606099999999,
        "roughnessFactor": 1
      }
    },
    {
      "doubleSided": true,
      "emissiveFactor": [
        1,
        1,
        1
      ],
      "emissiveTexture": {
        "index": 0,
        "texCoord": 0
      },
      "name": "Access_PanelAccess_Panel_material",
      "normalTexture": {
        "index": 1,
        "scale": 1,
        "texCoord": 0
      },
      "pbrMetallicRoughness": {
        "baseColorFactor": [
          1,
          1,
          1,
          1
        ],
        "baseColorTexture": {
          "index": 2,
          "texCoord": 0
        },
        "metallicFactor": 0.14715909090000001,
        "roughnessFactor": 0.028598484800000046
      }
    }
  ],
  "meshes": [
    {
      "name": "CCTV1:CCTV_Camera_CCTV1:CCTV_Material_0",
      "primitives": [
        {
          "attributes": {
            "NORMAL": 1,
            "POSITION": 0,
            "TANGENT": 2,
            "TEXCOORD_0": 3,
            "TEXCOORD_1": 4
          },
          "indices": 5,
          "material": 0,
          "mode": 4
        }
      ]
    },
    {
      "name": "CCTV1:Hinge_CCTV1:CCTV_Material_0",
      "primitives": [
        {
          "attributes": {
            "NORMAL": 7,
            "POSITION": 6,
            "TANGENT": 8,
            "TEXCOORD_0": 9,
            "TEXCOORD_1": 10
          },
          "indices": 11,
          "material": 0,
          "mode": 4
        }
      ]
    },
    {
      "name": "Access_Panel:Access_Panel_Access_Panel:Access_Panel_material_0",
      "primitives": [
        {
          "attributes": {
            "NORMAL": 13,
            "POSITION": 12,
            "TANGENT": 14,
            "TEXCOORD_0": 15,
            "TEXCOORD_1": 16
          },
          "indices": 17,
          "material": 1,
          "mode": 4
        }
      ]
    }
  ],
  "nodes": [
    {
      "children": [
        1
      ],
      "name": "RootNode (gltf orientation matrix)",
      "rotation": [
        -0.70710678118654746,
        -0,
        -0,
        0.70710678118654757
      ]
    },
    {
      "children": [
        2
      ],
      "name": "RootNode (model correction matrix)"
    },
    {
      "children": [
        3
      ],
      "matrix": [
        1,
        0,
        0,
        0,
        0,
        0,
        1,
        0,
        0,
        -1,
        0,
        0,
        0,
        0,
        0,
        1
      ],
      "name": "911383e384634c9a94c6f9b5e2bc0a61.fbx"
    },
    {
      "children": [
        4,
        8
      ],
      "name": "RootNode"
    },
    {
      "children": [
        5,
        6
      ],
      "matrix": [
        0.0099999997764825821,
        0,
        0,
        0,
        0,
        0.0099999997764825821,
        0,
        0,
        0,
        0,
        0.0099999997764825821,
        0,
        0,
        0.03657180443406105,
        0.070000000298023224,
        1
      ],
      "name": "CCTV1:CCTV_Camera"
    },
    {
      "mesh": 0,
      "name": "CCTV1:CCTV_Camera_CCTV1:CCTV_Material_0"
    },
    {
      "children": [
        7
      ],
      "name": "CCTV1:Hinge"
    },
    {
      "mesh": 1,
      "name": "CCTV1:Hinge_CCTV1:CCTV_Material_0"
    },
    {
      "children": [
        9
      ],
      "matrix": [
        0.0099999997764825821,
        0,
        0,
        0,
        0,
        0.0099999997764825821,
        0,
        0,
        0,
        0,
        0.0099999997764825821,
        0,
        -0.051923234015703201,
        0.037417322397232056,
        0,
        1
      ],
      "name": "Access_Panel:Access_Panel"
    },
    {
      "mesh": 2,
      "name": "Access_Panel:Access_Panel_Access_Panel:Access_Panel_material_0"
    }
  ],
  "samplers": [
    {
      "magFilter": 9729,
      "minFilter": 9987,
      "wrapS": 10497,
      "wrapT": 10497
    }
  ],
  "scene": 0,
  "scenes": [
    {
      "name": "OSG_Scene",
      "nodes": [
        0
      ]
    }
  ],
  "textures": [
    {
      "sampler": 0,
      "source": 0
    },
    {
      "sampler": 0,
      "source": 1
    },
    {
      "sampler": 0,
      "source": 2
    },
    {
      "sampler": 0,
      "source": 3
    },
    {
      "sampler": 0,
      "source": 4
    }
  ]
}

